/* XPM */
static char * C:\Users\gokere\Desktop\SL_icons\Superlumic_logo_16x16_xpm[] = {
"16 16 181 2",
"  	c None",
". 	c #D28D1A",
"+ 	c #DBA442",
"@ 	c #D18B16",
"# 	c #D3901E",
"$ 	c #D5901C",
"% 	c #E49C24",
"& 	c #AE761A",
"* 	c #4C3F2E",
"= 	c #D79A30",
"- 	c #D99E38",
"; 	c #D18B18",
"> 	c #DAA03C",
", 	c #D79B34",
"' 	c #D89C36",
") 	c #D89C34",
"! 	c #D9A03D",
"~ 	c #E0961B",
"{ 	c #78551E",
"] 	c #DA9F36",
"^ 	c #D48C13",
"/ 	c #E0AC4A",
"( 	c #E1AF4F",
"_ 	c #DB9D30",
": 	c #DFA842",
"< 	c #D89725",
"[ 	c #A67729",
"} 	c #6A4E22",
"| 	c #D59D38",
"1 	c #E0A63C",
"2 	c #6F562B",
"3 	c #E0AB45",
"4 	c #E4B556",
"5 	c #92671B",
"6 	c #644F2B",
"7 	c #634B21",
"8 	c #644C25",
"9 	c #60471D",
"0 	c #B37E1D",
"a 	c #4B3B21",
"b 	c #1F1C1E",
"c 	c #F5BD4B",
"d 	c #DFA940",
"e 	c #F2BB4D",
"f 	c #28211D",
"g 	c #DDA228",
"h 	c #F5B62E",
"i 	c #141623",
"j 	c #261F1B",
"k 	c #3A3224",
"l 	c #3A2F1F",
"m 	c #59441F",
"n 	c #FFD055",
"o 	c #0C0D1B",
"p 	c #634C23",
"q 	c #DFA62D",
"r 	c #E1AD3F",
"s 	c #E0AB3C",
"t 	c #8D6922",
"u 	c #E1A82D",
"v 	c #E4B446",
"w 	c #C2993E",
"x 	c #1B191F",
"y 	c #977D40",
"z 	c #F1BB43",
"A 	c #EEB22D",
"B 	c #EAB641",
"C 	c #AF8833",
"D 	c #1E1C21",
"E 	c #9B7628",
"F 	c #DEA324",
"G 	c #E5B84E",
"H 	c #E4B547",
"I 	c #D39D27",
"J 	c #10111F",
"K 	c #E0A92B",
"L 	c #E2B140",
"M 	c #826220",
"N 	c #211E21",
"O 	c #463E2E",
"P 	c #52401F",
"Q 	c #544323",
"R 	c #90763D",
"S 	c #78602F",
"T 	c #10101C",
"U 	c #E4B64B",
"V 	c #E2AC34",
"W 	c #E5B74B",
"X 	c #E6B950",
"Y 	c #F6B625",
"Z 	c #080C1E",
"` 	c #E5B648",
" .	c #E3B341",
"..	c #CDAE61",
"+.	c #9E813F",
"@.	c #9E8241",
"#.	c #83682D",
"$.	c #201D20",
"%.	c #937D43",
"&.	c #362C1E",
"*.	c #2C2621",
"=.	c #C7982F",
"-.	c #BC9336",
";.	c #BD9A46",
">.	c #D19A20",
",.	c #FFD260",
"'.	c #090918",
").	c #E6BA52",
"!.	c #E5B94C",
"~.	c #E6BC54",
"{.	c #CAA03E",
"].	c #C89C34",
"^.	c #7E6A39",
"/.	c #1B1A1F",
"(.	c #C19C41",
"_.	c #050617",
":.	c #1A181E",
"<.	c #15151F",
"[.	c #16151F",
"}.	c #372D1E",
"|.	c #F2C555",
"1.	c #D8A228",
"2.	c #0E1020",
"3.	c #E6A726",
"4.	c #33281C",
"5.	c #16161E",
"6.	c #15141D",
"7.	c #111220",
"8.	c #C89C3C",
"9.	c #6E5727",
"0.	c #786232",
"a.	c #92732F",
"b.	c #84682A",
"c.	c #7F5E22",
"d.	c #D59A22",
"e.	c #9A8451",
"f.	c #221E1F",
"g.	c #C49235",
"h.	c #A98237",
"i.	c #A87E2D",
"j.	c #AC8C49",
"k.	c #A57723",
"l.	c #C89431",
"m.	c #64481C",
"n.	c #FFE54E",
"o.	c #907234",
"p.	c #785923",
"q.	c #3F321E",
"r.	c #8D7136",
"s.	c #D29625",
"t.	c #2E2620",
"u.	c #D59320",
"v.	c #D99B31",
"w.	c #E0B158",
"x.	c #D8992C",
"y.	c #C1913B",
"z.	c #956E31",
"A.	c #A37B39",
"B.	c #BB9244",
"C.	c #AC7C2B",
"D.	c #BF8829",
"E.	c #7A6034",
"F.	c #D99C33",
"G.	c #D99B32",
"H.	c #D99A31",
"I.	c #D79529",
"J.	c #D7962A",
"K.	c #D8992F",
"L.	c #E4A83E",
"M.	c #936A27",
"N.	c #0F1220",
"O.	c #D99726",
"P.	c #DC9F32",
"Q.	c #DD9F32",
"R.	c #DDA032",
"S.	c #E7A632",
"T.	c #CC912B",
"U.	c #584425",
"V.	c #BD7E15",
"W.	c #976516",
"X.	c #4D3515",
"                                ",
"        . + @ # $ % & *         ",
"      = - ; > , ' ) ! ~ {       ",
"    ] ^ / ( _ : < [ } | 1 2     ",
"  3 4 5 6 7 8 9 0 a b c d e f   ",
"  g h i j k l m n o p q r s t   ",
"u v w x y z A B C D E F G H I J ",
"K L M N O P Q R S T U V W X Y Z ",
"`  ...+.@.#.$.%.&.*.=.-.;.>.,.'.",
").!.~.{.].^./.(._.:.<.[.}.|.1.2.",
"  3.4.5.6.x 7.8.9.0.a.b.c.d.e.f.",
"  g.h.i.j.k.l.m.n.o.p.q.r.s.t.  ",
"    u.v.$ w.x.y.z.A.B.C.D.E.    ",
"      F.G.H.G.I.J.J.K.L.M.N.    ",
"        O._ P.Q.R.S.T.U.        ",
"              V.W.X.            "};
