/* XPM */
static char * C:\Users\gokere\Desktop\SL_icons\Superlumic_logo_32x32x_xpm[] = {
"32 32 561 2",
"  	c None",
". 	c #D49120",
"+ 	c #CF8C1E",
"@ 	c #B87E1F",
"# 	c #A5721F",
"$ 	c #8C611F",
"% 	c #6A4D1F",
"& 	c #1D1B20",
"* 	c #D38F1E",
"= 	c #D38D1B",
"- 	c #D5962B",
"; 	c #D38F1D",
"> 	c #D28F1E",
", 	c #D28E1E",
"' 	c #D4901E",
") 	c #EA9E1E",
"! 	c #B77D1F",
"~ 	c #553F1F",
"{ 	c #0E1120",
"] 	c #D4901F",
"^ 	c #D28D1B",
"/ 	c #D3901F",
"( 	c #D99F3B",
"_ 	c #E5BF71",
": 	c #D18A15",
"< 	c #DAA03C",
"[ 	c #D99018",
"} 	c #D09F47",
"| 	c #34291D",
"1 	c #211E20",
"2 	c #D89C33",
"3 	c #D79930",
"4 	c #DDA84B",
"5 	c #D28D1A",
"6 	c #D49223",
"7 	c #DFAD53",
"8 	c #D28B17",
"9 	c #D28D1C",
"0 	c #E5BF70",
"a 	c #D89B33",
"b 	c #D28C19",
"c 	c #DDAB4E",
"d 	c #D39223",
"e 	c #E59B1E",
"f 	c #725120",
"g 	c #171820",
"h 	c #DDAB50",
"i 	c #D79A31",
"j 	c #D79B32",
"k 	c #DFAF54",
"l 	c #D38F1F",
"m 	c #DBA546",
"n 	c #DCA646",
"o 	c #DBA444",
"p 	c #DEAD51",
"q 	c #D69427",
"r 	c #DA931E",
"s 	c #93671F",
"t 	c #151720",
"u 	c #D59120",
"v 	c #DEA846",
"w 	c #D5901C",
"x 	c #D48E19",
"y 	c #DEAB4C",
"z 	c #D69728",
"A 	c #DA9F36",
"B 	c #DCA541",
"C 	c #D48D16",
"D 	c #DCA43F",
"E 	c #D79626",
"F 	c #D5901D",
"G 	c #D69321",
"H 	c #DEA63E",
"I 	c #DB9C2D",
"J 	c #DA9622",
"K 	c #D3911F",
"L 	c #DDA745",
"M 	c #DBA23D",
"N 	c #DC9C2B",
"O 	c #84612A",
"P 	c #1E1B1E",
"Q 	c #D69521",
"R 	c #D79723",
"S 	c #DFAC4A",
"T 	c #D6941E",
"U 	c #D5921B",
"V 	c #E2B55E",
"W 	c #DDA843",
"X 	c #DFAE50",
"Y 	c #E0B359",
"Z 	c #DEAC4C",
"` 	c #DCA743",
" .	c #DCA843",
"..	c #E3B863",
"+.	c #DCA53F",
"@.	c #D79722",
"#.	c #DE9C22",
"$.	c #00001B",
"%.	c #0C1020",
"&.	c #000720",
"*.	c #B57D1F",
"=.	c #DEAA48",
"-.	c #DBA136",
";.	c #E9AA34",
">.	c #4B4232",
",.	c #262120",
"'.	c #E3B75E",
").	c #D99B27",
"!.	c #E2B04F",
"~.	c #DE9C20",
"{.	c #C98F23",
"].	c #BA964C",
"^.	c #B37F23",
"/.	c #B27F21",
"(.	c #B58833",
"_.	c #B68935",
":.	c #B38125",
"<.	c #B38024",
"[.	c #B27C1C",
"}.	c #A77821",
"|.	c #DB9B24",
"1.	c #996E23",
"2.	c #231F20",
"3.	c #131420",
"4.	c #EFA721",
"5.	c #D8971D",
"6.	c #D99924",
"7.	c #D7941A",
"8.	c #ECBB57",
"9.	c #11121F",
"0.	c #DB9D26",
"a.	c #E4B556",
"b.	c #EBCC82",
"c.	c #E0AE48",
"d.	c #94691C",
"e.	c #0D0F1E",
"f.	c #19171D",
"g.	c #191920",
"h.	c #19181D",
"i.	c #1A1920",
"j.	c #191921",
"k.	c #664818",
"l.	c #E2A227",
"m.	c #634B22",
"n.	c #242020",
"o.	c #544122",
"p.	c #EABC5B",
"q.	c #EACA7E",
"r.	c #E4B656",
"s.	c #E4B85A",
"t.	c #E4B555",
"u.	c #E2B659",
"v.	c #805E23",
"w.	c #252120",
"x.	c #DCA129",
"y.	c #DCA127",
"z.	c #DDA42E",
"A.	c #EFB63D",
"B.	c #3E372D",
"C.	c #242021",
"D.	c #272220",
"E.	c #F8D475",
"F.	c #F5B229",
"G.	c #8F6B25",
"H.	c #DBA32E",
"I.	c #DFA939",
"J.	c #D89511",
"K.	c #DA9C1D",
"L.	c #E6BC5E",
"M.	c #E9AB29",
"N.	c #0C0E1F",
"O.	c #DEA52B",
"P.	c #DEA52A",
"Q.	c #DEA42A",
"R.	c #EEB02B",
"S.	c #0C0F1F",
"T.	c #231F21",
"U.	c #433216",
"V.	c #5D4315",
"W.	c #5F5941",
"X.	c #5E4920",
"Y.	c #5F4A23",
"Z.	c #564323",
"`.	c #DCA42A",
" +	c #DC9F21",
".+	c #DABB6A",
"++	c #0F0E19",
"@+	c #0E101F",
"#+	c #D69F2A",
"$+	c #E0AA36",
"%+	c #F1DA99",
"&+	c #E0A934",
"*+	c #DC9F1E",
"=+	c #E8BF63",
"-+	c #E5A92A",
";+	c #574523",
">+	c #E0A62A",
",+	c #E0A82D",
"'+	c #DEA221",
")+	c #DFA62B",
"!+	c #AF8429",
"~+	c #1C1A20",
"{+	c #0B0B19",
"]+	c #FDD86F",
"^+	c #ECC566",
"/+	c #E7B341",
"(+	c #E3A92D",
"_+	c #E3AA2C",
":+	c #E3AA2D",
"<+	c #DFA426",
"[+	c #DEA426",
"}+	c #8C6A23",
"|+	c #201D20",
"1+	c #F8B92E",
"2+	c #E0A82C",
"3+	c #DFA425",
"4+	c #ECCD7B",
"5+	c #DEA120",
"6+	c #E9C366",
"7+	c #DEA62B",
"8+	c #967328",
"9+	c #DFA627",
"0+	c #F1DB99",
"a+	c #E9C164",
"b+	c #756337",
"c+	c #252020",
"d+	c #41392F",
"e+	c #EFB83C",
"f+	c #DFA82E",
"g+	c #DFA72C",
"h+	c #DDA222",
"i+	c #EED388",
"j+	c #F0C968",
"k+	c #514122",
"l+	c #685225",
"m+	c #E1A82C",
"n+	c #DFA526",
"o+	c #E9C365",
"p+	c #DEA320",
"q+	c #E9C467",
"r+	c #E0A82B",
"s+	c #CF9C2B",
"t+	c #10111F",
"u+	c #E1AA2F",
"v+	c #DFA527",
"w+	c #E8C05E",
"x+	c #F3B52B",
"y+	c #31281E",
"z+	c #48391C",
"A+	c #948253",
"B+	c #8D6A21",
"C+	c #8E6C27",
"D+	c #8E6D27",
"E+	c #926F27",
"F+	c #F3C75F",
"G+	c #F8BF3B",
"H+	c #A17B29",
"I+	c #DEA62A",
"J+	c #DEA220",
"K+	c #EEB22D",
"L+	c #0D0F1F",
"M+	c #E0A92A",
"N+	c #E2AF38",
"O+	c #E6BB53",
"P+	c #E0A82A",
"Q+	c #E9B12D",
"R+	c #0C0E1E",
"S+	c #241F20",
"T+	c #191820",
"U+	c #B69850",
"V+	c #C09F4B",
"W+	c #17151E",
"X+	c #0A0B1A",
"Y+	c #F0C65F",
"Z+	c #EAC567",
"`+	c #ECCC77",
" @	c #DEA31F",
".@	c #EAC86F",
"+@	c #DEA421",
"@@	c #DFA626",
"#@	c #ECCB78",
"$@	c #DFA727",
"%@	c #F5B92E",
"&@	c #12131F",
"*@	c #E9C364",
"=@	c #EAC76C",
"-@	c #EDD17F",
";@	c #DEA523",
">@	c #F1C557",
",@	c #513A12",
"'@	c #3F3015",
")@	c #3F2F14",
"!@	c #423725",
"~@	c #322A22",
"{@	c #0B0E1F",
"]@	c #EDC35B",
"^@	c #7D6226",
"/@	c #332A21",
"(@	c #F0B72F",
"_@	c #E3B547",
":@	c #E6BE5B",
"<@	c #DEA82B",
"[@	c #E0AE37",
"}@	c #E7C263",
"|@	c #DFA72A",
"1@	c #EED081",
"2@	c #F4B729",
"3@	c #13131F",
"4@	c #E2AC2F",
"5@	c #E0A625",
"6@	c #E1A828",
"7@	c #E6B94E",
"8@	c #F1DFA0",
"9@	c #EEC45D",
"0@	c #F7CD64",
"a@	c #F7CC64",
"b@	c #F7CF68",
"c@	c #F1C049",
"d@	c #896D28",
"e@	c #302822",
"f@	c #FFDA5E",
"g@	c #3D3322",
"h@	c #4B3E23",
"i@	c #886827",
"j@	c #896927",
"k@	c #896926",
"l@	c #896A29",
"m@	c #8D7742",
"n@	c #B1892F",
"o@	c #E1AA2E",
"p@	c #E0A523",
"q@	c #FBDC81",
"r@	c #0D0A14",
"s@	c #ECCE7A",
"t@	c #F2E1A2",
"u@	c #DEA31C",
"v@	c #E0A725",
"w@	c #ECCE79",
"x@	c #E2AF39",
"y@	c #E1AF38",
"z@	c #E0A92D",
"A@	c #DFA92C",
"B@	c #F3D372",
"C@	c #42331E",
"D@	c #745C27",
"E@	c #F1C858",
"F@	c #0A0913",
"G@	c #24201F",
"H@	c #F7D064",
"I@	c #E3B23D",
"J@	c #E1AB30",
"K@	c #D8A42D",
"L@	c #0D0E1E",
"M@	c #DEA324",
"N@	c #E1AD35",
"O@	c #DFA82C",
"P@	c #E0A72C",
"Q@	c #CBB777",
"R@	c #A78D4C",
"S@	c #A78D4B",
"T@	c #A79864",
"U@	c #A37A23",
"V@	c #A47E26",
"W@	c #161620",
"X@	c #1C1B1F",
"Y@	c #AC8023",
"Z@	c #AB924F",
"`@	c #1D191C",
" #	c #221F20",
".#	c #11111F",
"+#	c #D8A42B",
"@#	c #DDA427",
"##	c #E9C46A",
"$#	c #E2B142",
"%#	c #9D7623",
"&#	c #221E20",
"*#	c #DDA42B",
"=#	c #DDA32A",
"-#	c #DAA12A",
";#	c #CA982A",
">#	c #100F1B",
",#	c #201E20",
"'#	c #201D1F",
")#	c #0C0F1E",
"!#	c #E7A51B",
"~#	c #D0AB4B",
"{#	c #A78633",
"]#	c #A47D21",
"^#	c #A29057",
"/#	c #A57E22",
"(#	c #A68228",
"_#	c #976D1D",
":#	c #A47F26",
"<#	c #9E7722",
"[#	c #D09D29",
"}#	c #F3B22B",
"|#	c #DDA329",
"1#	c #F5DE9F",
"2#	c #63583A",
"3#	c #DA9E26",
"4#	c #E2A528",
"5#	c #1A1820",
"6#	c #423627",
"7#	c #FFCE60",
"8#	c #1C171A",
"9#	c #261E20",
"0#	c #5D4B2F",
"a#	c #64512D",
"b#	c #261D1C",
"c#	c #18141B",
"d#	c #C7A551",
"e#	c #392D23",
"f#	c #7C693A",
"g#	c #2A211E",
"h#	c #231E20",
"i#	c #B18226",
"j#	c #DB9F27",
"k#	c #F1B12D",
"l#	c #0F0F1B",
"m#	c #E9BA5A",
"n#	c #856B3C",
"o#	c #706548",
"p#	c #6D572F",
"q#	c #6B5122",
"r#	c #6C5A34",
"s#	c #6A5020",
"t#	c #6B5021",
"u#	c #6E5F40",
"v#	c #6F511B",
"w#	c #DA9D25",
"x#	c #E8A625",
"y#	c #090C20",
"z#	c #FFC22E",
"A#	c #EFA921",
"B#	c #382C1C",
"C#	c #E6C163",
"D#	c #372E23",
"E#	c #BF8A25",
"F#	c #2D2520",
"G#	c #725723",
"H#	c #B1964F",
"I#	c #69582F",
"J#	c #A57925",
"K#	c #D59A25",
"L#	c #8F6923",
"M#	c #D59216",
"N#	c #DCA235",
"O#	c #D79620",
"P#	c #D7971F",
"Q#	c #E2B456",
"R#	c #E0AF4F",
"S#	c #E4BA63",
"T#	c #D6951D",
"U#	c #D7961F",
"V#	c #E3B962",
"W#	c #D7951D",
"X#	c #E7A224",
"Y#	c #0A0C1C",
"Z#	c #FED977",
"`#	c #E8B54D",
" $	c #3D3429",
".$	c #CF931F",
"+$	c #34291F",
"@$	c #C09238",
"#$	c #2E251E",
"$$	c #735721",
"%$	c #9F701D",
"&$	c #66512D",
"*$	c #A57C2E",
"=$	c #E9A423",
"-$	c #181720",
";$	c #D69422",
">$	c #D69622",
",$	c #D6931E",
"'$	c #E3B761",
")$	c #DA9D31",
"!$	c #D5921C",
"~$	c #E1B45B",
"{$	c #D69420",
"]$	c #D79623",
"^$	c #E0B155",
"/$	c #E09A1C",
"($	c #543E21",
"_$	c #483016",
":$	c #7A551E",
"<$	c #865F20",
"[$	c #4B3721",
"}$	c #4D3C1F",
"|$	c #D4B671",
"1$	c #674819",
"2$	c #93671D",
"3$	c #B27B1E",
"4$	c #8C682B",
"5$	c #C8AC6B",
"6$	c #604318",
"7$	c #D4911F",
"8$	c #D48E1B",
"9$	c #D59121",
"0$	c #D59221",
"a$	c #DBA441",
"b$	c #E4BE70",
"c$	c #D38D18",
"d$	c #D7962A",
"e$	c #DFAE53",
"f$	c #DFAA4B",
"g$	c #DEAA4B",
"h$	c #DFA948",
"i$	c #E1AC4C",
"j$	c #D48F1A",
"k$	c #D68E18",
"l$	c #E4BA66",
"m$	c #DDA847",
"n$	c #A5731E",
"o$	c #171721",
"p$	c #D38E1E",
"q$	c #D28A16",
"r$	c #D59122",
"s$	c #D28B18",
"t$	c #D0850D",
"u$	c #D0860E",
"v$	c #D0850E",
"w$	c #D28914",
"x$	c #D89D36",
"y$	c #DAA03A",
"z$	c #B87F1F",
"A$	c #131520",
"B$	c #DFAB4C",
"C$	c #DFA848",
"D$	c #DEA847",
"E$	c #DB9D34",
"F$	c #E9B14C",
"G$	c #A38244",
"H$	c #D6921D",
"I$	c #D6901C",
"J$	c #D7911C",
"K$	c #D6911B",
"L$	c #D7911B",
"M$	c #D58F1B",
"N$	c #E69F23",
"O$	c #594C34",
"P$	c #18161C",
"Q$	c #E1AC48",
"R$	c #E0A944",
"S$	c #E2AC48",
"T$	c #E2AC49",
"U$	c #E1AC49",
"V$	c #E0AB49",
"W$	c #EDB449",
"X$	c #E6B14B",
"Y$	c #7D602D",
"Z$	c #11121E",
"`$	c #272221",
" %	c #D89017",
".%	c #CC8918",
"+%	c #C4851A",
"@%	c #CB891A",
"#%	c #C2831A",
"$%	c #A36F1A",
"%%	c #7B551A",
"&%	c #41301A",
"*%	c #050616",
"                                                                ",
"                          . + @ # $ % &                         ",
"                  * = - ; * > > , , ' ) ! ~ {                   ",
"              ] ^ / ( _ : * * * * ^ < * > [ } | 1               ",
"            2 3 4 5 ^ 6 7 8 * * * 9 0 a b c d e f g             ",
"          h i j k 5 l l = 7 m n o p : 8 c q l * r s t           ",
"        u v w x y z A B w w C D E F G H I J K L M N O P         ",
"      Q R S T U V W X Y Z `  ...+.@.#.$.%.&.*.X =.-.;.>.,.      ",
"      '.).!.~.{.].^./.(._.:.<.[.}.|.1.1 2.3.4.5.6.6.7.8.9.2.    ",
"    0.a.b.c.d.e.f.g.g.h.i.g.g.j.k.l.m.n.n.o.p.q.r.s.t.u.v.w.    ",
"    x.y.z.A.B.2.2.n.n.C.n.n.D.| E.F.& 2.n.G.H.I.J.K.J.L.M.N.2.  ",
"  O.P.Q.P.R.S.2.T.U.V.W.X.Y.Z.`. +.+++2.@+#+P.$+%+&+*+=+-+;+n.  ",
"  >+,+'+)+!+~+2.{+]+^+/+(+_+:+<+[+}+C.2.|+1+2+3+4+3+5+6+7+8+2.  ",
"  2+9+0+a+b+c+n.d+e+f+g+g+g+h+i+j+k+n.n.l+m+2+n+o+n+p+q+r+s+t+2.",
"u+2+v+w+x+y+2.n.z+A+B+C+C+D+E+F+G+9.2.|+H+I+n+n+o+n+J+o+2+K+L+2.",
"M+N+O+P+Q+R+2.S+n.n.n.n.n.2.T+U+V+W+2.X+Y+Z+`+ @.@+@@@#@$@%@&@2.",
"*@=@-@;@>@,@'@'@'@)@!@~@2.2.{@]@^@n.2./@(@_@:@<@[@}@|@;@1@2@3@2.",
"4@5@6@7@8@9@0@a@a@b@c@d@n.2.e@f@g@2.n.h@i@j@k@l@l@m@n@o@p@q@r@2.",
"  s@t@u@v@w@x@y@z@A@B@C@S+c+D@E@F@2.2.2.S+S+S+n.c+G@H@I@J@K@L@2.",
"  M@N@O@P@Q@R@S@T@U@V@W@2.X@Y@Z@`@2. #2.2.2.2. #.#+#@###$#%#&#  ",
"  *#=#-#;#>#,#,#'#|+1 2.2.)#!#~#{#]#^#/#(#_#:#<#[#}#>+|#1#2#C.  ",
"  x.3#4#5#c+n.n.n.n.n.n.D.6#7#8#9#0#a#b#c#d#e#f#g#h#i#j#k#l#2.  ",
"    m#n#o#p#q#q#r#s#t#u#v#w#x#y#z#A#B#C#D#E#F#G#H#I#J#K#L#2.    ",
"    M#7.N#O#P#Q#R#S#T#U#V#W#X#Y#Z#`# $.$+$@$#$$$%$&$*$=$-$2.    ",
"      ;$>$>$,$'$)$!$~${$]$^$/$($_$:$<$[$}$|$1$2$3$4$5$6$w.      ",
"        7$u u 8$9$0$a$b$c$d$e$f$f$g$g$h$i$j$k$l$m$F n$o$2.      ",
"          p$q$8 8 8 q$r$8 s$t$u$u$u$u$v$w$q$x$y$l z$A$2.        ",
"            B$h$C$C$C$h$C$C$C$C$C$C$C$C$C$D$E$F$G$A$2.          ",
"              H$I$J$K$K$K$K$K$K$K$K$K$K$L$M$N$O$P$              ",
"                  Q$R$S$T$U$T$T$U$V$V$W$X$Y$Z$`$                ",
"                         %.%+%@%#%$%%%&%*%                      ",
"                                                                "};
